
<svg width="1440" height="1150" viewBox="0 0 1440 1150" fill="none" xmlns="http://www.w3.org/2000/svg">
<path d="M1220.88 336.049L1228.59 376.165C1229.53 381.045 1230.9 385.832 1232.69 390.47C1251.71 439.841 1311.2 459.393 1355.81 430.934L1444.34 374.451C1455.65 367.233 1465.29 357.686 1472.62 346.446C1496.8 309.38 1491.97 260.495 1461.01 228.875L1443.06 210.539C1392.64 159.047 1309.44 160.084 1260.33 212.816L1254.53 219.038C1225.29 250.438 1212.79 293.91 1220.88 336.049Z" fill="#FFDA58"/>
<path d="M124.296 1044.12L130.92 1088.93C132.293 1098.22 135.487 1107.14 140.317 1115.19C159.78 1147.63 201.183 1159.23 234.665 1141.62L318.804 1097.38C338.095 1087.23 352.416 1069.66 358.46 1048.72C365.97 1022.7 359.812 994.642 342.094 974.156L323.578 952.747C279.918 902.265 202.45 899.841 155.72 947.495C130.7 973.01 119.07 1008.77 124.296 1044.12Z" fill="#A0522D"/>
<path d="M877.745 582.781L851.514 585.718C848.795 586.022 846.231 587.142 844.159 588.929C836.894 595.196 838.249 606.818 846.761 611.246L868.343 622.473C873.75 625.286 877.912 630.016 880.014 635.737C886.004 652.041 906.605 657.081 919.445 645.383L922.845 642.287C936.117 630.196 934.465 608.845 919.491 598.939L904.989 589.346C896.957 584.033 887.315 581.71 877.745 582.781Z" fill="#6CC447"/>
<path d="M7.66081 143.434L19 178C33.2017 212.715 74.9921 226.622 107.163 207.339L179.099 164.221C199.509 151.987 212 129.937 212 106.142C212 91.4471 207.22 77.1513 198.381 65.4122L186.731 49.9391C149.35 0.292637 76.7184 -4.87188 32.6888 38.9858C5.28773 66.2798 -4.39428 106.685 7.66081 143.434Z" fill="#6BC346"/>
<path d="M-19.4626 443.727L-27.5232 444.452C-47.1672 446.217 -59.5241 466.456 -52.1193 484.737C-51.375 486.574 -50.8186 488.482 -50.4587 490.432L-42.1921 535.209C-40.1736 546.143 -33.3145 555.576 -23.5352 560.866L3.10315 575.277C12.3414 580.275 13.8826 592.896 6.11849 599.97C-4.18195 609.355 2.45746 626.5 16.3921 626.5H67.4352C74.6363 626.5 81.6623 624.28 87.5562 620.143L91.1197 617.641C120.383 597.099 118.351 553.101 87.3185 535.343L71.1941 526.117C66.4306 523.391 61.2507 521.468 55.8623 520.425L32.6034 515.923C16.1504 512.739 5.95956 496.142 10.5634 480.028C16.0737 460.742 0.514458 441.931 -19.4626 443.727Z" fill="#FFDB58"/>
<path d="M1243.99 774.015L1132.19 786.525C1123.6 787.486 1115.5 791.02 1108.95 796.663C1085.98 816.468 1090.26 853.211 1117.17 867.202L1194.82 907.567C1205.87 913.314 1214.38 922.982 1218.68 934.677L1236.36 982.757C1248.61 1016.07 1290.7 1026.37 1316.95 1002.48L1392.99 933.252C1417.09 911.31 1414.09 872.543 1386.9 854.569L1277.12 781.995C1267.35 775.537 1255.63 772.713 1243.99 774.015Z" fill="#B0BEC5"/>
</svg>
