<svg width="28" height="28" viewBox="0 0 28 28" fill="none" xmlns="http://www.w3.org/2000/svg">
<path d="M14 6.42855C14.6533 6.42855 15.3067 6.83688 15.7967 7.66522L22.6917 19.1569C23.695 20.8135 22.925 22.1669 21 22.1669H7C5.075 22.1669 4.305 20.8135 5.29666 19.1685L12.1917 7.67688C12.6933 6.83688 13.3467 6.42855 14 6.42855ZM14 4.09521C12.4833 4.09521 11.1067 4.95855 10.1967 6.46355L3.30166 17.9669C2.78833 18.8302 2.53166 19.7169 2.53166 20.5685C2.53166 21.2219 2.695 21.8635 3.02166 22.4352C3.76833 23.7419 5.215 24.5002 7 24.5002H21C22.785 24.5002 24.2317 23.7419 24.9783 22.4352C25.3167 21.8402 25.48 21.1869 25.4683 20.5102C25.4567 19.6819 25.2 18.8069 24.6983 17.9669L17.8033 6.47521C16.8933 4.95855 15.5167 4.09521 14 4.09521ZM15.75 19.5419C15.75 19.5419 14.9217 19.9619 14.5017 19.7519C14.0817 19.5419 14 19.1219 14.2333 18.4102L14.7117 16.9869C15.1783 15.5635 14.5717 14.5602 13.4517 14.5019C11.9817 14.4202 11.095 15.4702 11.095 15.4702C11.095 15.4702 11.9233 15.0502 12.3433 15.2602C12.7633 15.4702 12.845 15.8902 12.6117 16.6019L12.1333 18.0252C11.6667 19.4485 12.2733 20.4402 13.3933 20.5102C14.8633 20.5802 15.75 19.5419 15.75 19.5419Z" fill="#43A047"/>
<path d="M14 13.1832C14.8376 13.1832 15.5167 12.5042 15.5167 11.6666C15.5167 10.8289 14.8376 10.1499 14 10.1499C13.1624 10.1499 12.4833 10.8289 12.4833 11.6666C12.4833 12.5042 13.1624 13.1832 14 13.1832Z" fill="#43A047"/>
</svg>
