
<svg width="44" height="44" viewBox="0 0 44 44" fill="none" xmlns="http://www.w3.org/2000/svg">
<path d="M32.8991 26.1743C32.241 23.7888 30.8185 21.6851 28.8497 20.1859C26.8809 18.6867 24.4747 17.8748 22.0001 17.8748C19.5254 17.8748 17.1192 18.6867 15.1504 20.1859C13.1816 21.6851 11.7591 23.7888 11.101 26.1743L9.53285 31.8591C9.25128 32.8798 9.20928 33.9517 9.4101 34.9913C9.61092 36.0309 10.0492 37.0101 10.6906 37.8524C11.3321 38.6948 12.1594 39.3777 13.1082 39.8477C14.0569 40.3178 15.1015 40.5623 16.1603 40.5623H27.8399C28.8987 40.5623 29.9432 40.3178 30.8919 39.8477C31.8407 39.3777 32.668 38.6948 33.3095 37.8524C33.951 37.0101 34.3892 36.0309 34.59 34.9913C34.7908 33.9517 34.7488 32.8798 34.4673 31.8591L32.8991 26.1743ZM31.1217 36.1861C30.7385 36.6933 30.2424 37.1044 29.6728 37.3867C29.1032 37.669 28.4756 37.8147 27.8399 37.8123H16.1603C15.525 37.8123 14.8983 37.6656 14.329 37.3836C13.7597 37.1016 13.2633 36.6918 12.8784 36.1864C12.4935 35.681 12.2306 35.0935 12.1101 34.4697C11.9896 33.8459 12.0148 33.2028 12.1838 32.5903L13.752 26.9057C14.25 25.1004 15.3265 23.5083 16.8164 22.3738C18.3063 21.2392 20.1273 20.6248 22.0001 20.6248C23.8728 20.6248 25.6938 21.2392 27.1837 22.3738C28.6736 23.5083 29.7502 25.1004 30.2482 26.9057L31.8164 32.5903C31.9877 33.2025 32.0142 33.8462 31.8936 34.4704C31.773 35.0946 31.5088 35.6821 31.1217 36.1864V36.1861ZM12.5555 19.7921C12.7948 18.2968 12.4775 16.696 11.6618 15.2836C10.8461 13.8711 9.61818 12.7959 8.20391 12.2555C6.68935 11.677 5.14454 11.7692 3.85255 12.5147C1.28414 13.9977 0.608239 17.6525 2.34615 20.6621C3.16161 22.0745 4.38957 23.1499 5.80385 23.6901C6.43031 23.9344 7.09625 24.0617 7.76864 24.0658C8.60631 24.0688 9.42981 23.8497 10.1552 23.4308C11.4464 22.6851 12.2989 21.3929 12.5555 19.7921ZM9.8399 19.3574C9.71701 20.1248 9.34061 20.7256 8.78004 21.0492C8.21947 21.3728 7.511 21.3983 6.78482 21.1211C5.95871 20.8057 5.22807 20.1542 4.72739 19.2871C3.76489 17.6199 3.99366 15.6089 5.22755 14.8963C5.53776 14.7204 5.88903 14.6297 6.24565 14.6335C6.58018 14.6371 6.91124 14.7017 7.22259 14.8241C8.04871 15.1397 8.77935 15.791 9.28002 16.6582C9.78069 17.5254 9.97947 18.4842 9.8399 19.3574ZM12.8534 14.095C13.8298 14.8756 14.9448 15.2821 16.0724 15.282C16.4102 15.2819 16.747 15.2456 17.077 15.1737C19.975 14.5436 21.7322 11.2684 20.994 7.87257C20.6477 6.27878 19.8056 4.88049 18.6231 3.93509C17.3569 2.92275 15.8569 2.53955 14.3996 2.85649C11.5016 3.48641 9.74443 6.76166 10.4825 10.1575C10.829 11.7514 11.671 13.1497 12.8534 14.095ZM14.9836 5.54375C15.1172 5.51497 15.2536 5.50056 15.3903 5.50079C15.9014 5.50079 16.4272 5.70076 16.9059 6.08353C17.5966 6.63568 18.0941 7.47864 18.3067 8.45721C18.7158 10.3388 17.8851 12.1841 16.4928 12.4868C15.8603 12.6243 15.1776 12.4328 14.5707 11.9476C13.88 11.3953 13.3825 10.5524 13.1699 9.57388C12.7607 7.69176 13.5914 5.84643 14.9836 5.54375ZM40.1476 12.5147C38.8561 11.7692 37.3105 11.677 35.7962 12.2555C34.3819 12.7958 33.154 13.8711 32.3385 15.2836C31.5231 16.696 31.2057 18.2971 31.4448 19.7921C31.701 21.3929 32.5534 22.6851 33.8451 23.4308C34.5704 23.8498 35.394 24.0689 36.2317 24.0658C36.904 24.0617 37.57 23.9344 38.1964 23.6901C39.6107 23.1499 40.8387 22.0745 41.6541 20.6621C43.3919 17.6525 42.716 13.9977 40.1476 12.5147ZM39.2727 19.2871C38.7721 20.1542 38.0414 20.8057 37.2153 21.1211C36.4895 21.3985 35.7808 21.373 35.2203 21.0492C34.6597 20.7254 34.2835 20.1248 34.1604 19.3574C34.0207 18.4842 34.2193 17.5258 34.7201 16.659C35.2209 15.7922 35.9514 15.1405 36.7775 14.8248C37.0889 14.7023 37.4199 14.6376 37.7545 14.634C38.1111 14.6301 38.4624 14.7208 38.7726 14.8968C40.0065 15.6088 40.2355 17.6194 39.2727 19.2871ZM26.9232 15.1737C27.2532 15.2456 27.5899 15.2819 27.9277 15.282C29.0552 15.282 30.1707 14.8756 31.1467 14.095C32.3291 13.1497 33.1712 11.7514 33.5176 10.1576C34.2557 6.76175 32.4985 3.4865 29.6005 2.85657C28.1433 2.53981 26.6433 2.92275 25.377 3.93518C24.1945 4.88049 23.3525 6.27886 23.0061 7.87257C22.2679 11.2684 24.0251 14.5436 26.9232 15.1737ZM25.6934 8.45678C25.906 7.47821 26.4035 6.6349 27.0942 6.0831C27.573 5.70033 28.0987 5.50036 28.6099 5.50036C28.7466 5.50013 28.8829 5.51454 29.0165 5.54332C30.4087 5.846 31.2394 7.69176 30.8304 9.57293C30.6176 10.5515 30.1201 11.3948 29.4296 11.9467C28.8228 12.4319 28.1406 12.6234 27.5075 12.486C26.115 12.1837 25.2843 10.3381 25.6934 8.45678Z" fill="#43A047"/>
</svg>
