
<svg width="24" height="24" viewBox="0 0 24 24" fill="none" xmlns="http://www.w3.org/2000/svg">
<path d="M17.9449 14.277C17.5859 12.9758 16.81 11.8283 15.7361 11.0106C14.6623 10.1928 13.3498 9.74997 12 9.74997C10.6502 9.74997 9.33767 10.1928 8.26379 11.0106C7.18991 11.8283 6.41398 12.9758 6.05504 14.277L5.19967 17.3778C5.04609 17.9345 5.02317 18.5192 5.13271 19.0863C5.24226 19.6533 5.48129 20.1874 5.83118 20.6469C6.18107 21.1064 6.63236 21.4788 7.14986 21.7352C7.66736 21.9916 8.23709 22.125 8.81462 22.125H15.1853C15.7628 22.125 16.3326 21.9916 16.8501 21.7352C17.3676 21.4788 17.8189 21.1064 18.1688 20.6469C18.5186 20.1874 18.7577 19.6533 18.8672 19.0863C18.9768 18.5192 18.9538 17.9345 18.8003 17.3778L17.9449 14.277ZM16.9754 19.7379C16.7664 20.0146 16.4958 20.2388 16.1851 20.3928C15.8744 20.5468 15.5321 20.6263 15.1853 20.625H8.81462C8.4681 20.625 8.12625 20.545 7.81575 20.3911C7.50524 20.2373 7.23446 20.0138 7.02452 19.7381C6.81458 19.4624 6.67116 19.142 6.60544 18.8017C6.53972 18.4615 6.55347 18.1107 6.64562 17.7766L7.501 14.6759C7.77264 13.6912 8.35984 12.8228 9.17253 12.204C9.98521 11.5851 10.9785 11.25 12 11.25C13.0214 11.25 14.0147 11.5851 14.8274 12.204C15.6401 12.8228 16.2273 13.6912 16.4989 14.6759L17.3543 17.7766C17.4478 18.1106 17.4622 18.4617 17.3964 18.8021C17.3307 19.1426 17.1865 19.463 16.9754 19.7381V19.7379ZM6.8484 10.7958C6.9789 9.98016 6.80584 9.10702 6.3609 8.33658C5.91597 7.56614 5.24622 6.97969 4.47479 6.68489C3.64867 6.36938 2.80604 6.41963 2.10132 6.82631C0.700372 7.63519 0.3317 9.62874 1.27965 11.2703C1.72445 12.0407 2.39425 12.6273 3.16567 12.922C3.50738 13.0552 3.87062 13.1247 4.23737 13.1269C4.69428 13.1285 5.14347 13.009 5.53914 12.7805C6.24343 12.3738 6.70843 11.6689 6.8484 10.7958ZM5.36715 10.5587C5.30012 10.9772 5.09481 11.3049 4.78904 11.4815C4.48328 11.658 4.09684 11.6719 3.70075 11.5207C3.25014 11.3486 2.85161 10.9933 2.57851 10.5203C2.05351 9.61092 2.17829 8.51405 2.85132 8.12536C3.02053 8.02938 3.21213 7.97993 3.40665 7.98202C3.58912 7.98396 3.7697 8.01917 3.93953 8.08594C4.39014 8.25811 4.78867 8.61338 5.06176 9.08639C5.33486 9.55941 5.44328 10.0824 5.36715 10.5587ZM7.01087 7.6883C7.54347 8.11406 8.15167 8.33578 8.76672 8.33574C8.95094 8.33567 9.13463 8.31585 9.31464 8.27663C10.8954 7.93299 11.8539 6.14649 11.4512 4.29422C11.2623 3.42488 10.803 2.66217 10.158 2.1465C9.46731 1.59431 8.64915 1.3853 7.85425 1.55817C6.27353 1.90177 5.31507 3.68827 5.71768 5.54053C5.90664 6.40992 6.36592 7.17263 7.01087 7.6883ZM8.17281 3.02395C8.2457 3.00825 8.32006 3.0004 8.39462 3.00052C8.67343 3.00052 8.96022 3.1096 9.22136 3.31838C9.59809 3.61955 9.86945 4.07935 9.98542 4.61311C10.2085 5.63944 9.75545 6.64599 8.99603 6.81108C8.65098 6.88608 8.27861 6.78164 7.94757 6.51694C7.57084 6.21572 7.29948 5.75592 7.18351 5.2222C6.96034 4.1956 7.41343 3.18905 8.17281 3.02395ZM21.8986 6.82631C21.1942 6.41963 20.3511 6.36938 19.5251 6.68489C18.7537 6.9796 18.0839 7.56614 17.6391 8.33658C17.1943 9.10702 17.0212 9.98034 17.1516 10.7958C17.2914 11.6689 17.7563 12.3738 18.4609 12.7805C18.8565 13.0091 19.3057 13.1286 19.7627 13.1269C20.1294 13.1247 20.4927 13.0552 20.8344 12.922C21.6058 12.6273 22.2756 12.0407 22.7204 11.2703C23.6682 9.62874 23.2996 7.63519 21.8986 6.82631ZM21.4214 10.5203C21.1483 10.9933 20.7498 11.3486 20.2992 11.5207C19.9033 11.672 19.5167 11.6581 19.211 11.4815C18.9052 11.3048 18.7 10.9772 18.6329 10.5587C18.5567 10.0824 18.665 9.5596 18.9382 9.08681C19.2113 8.61403 19.6098 8.25853 20.0604 8.08636C20.2302 8.01953 20.4108 7.98425 20.5933 7.98225C20.7878 7.98016 20.9794 8.02962 21.1486 8.12559C21.8216 8.51395 21.9466 9.61069 21.4214 10.5203ZM14.6853 8.27663C14.8653 8.31585 15.049 8.33567 15.2332 8.33574C15.8482 8.33574 16.4567 8.11406 16.9891 7.6883C17.634 7.17267 18.0933 6.40992 18.2822 5.54058C18.6849 3.68831 17.7264 1.90181 16.1457 1.55822C15.3508 1.38544 14.5326 1.59431 13.8419 2.14655C13.1969 2.66217 12.7376 3.42492 12.5487 4.29422C12.1461 6.14649 13.1045 7.93299 14.6853 8.27663ZM14.0145 4.61288C14.1305 4.07911 14.4018 3.61913 14.7786 3.31814C15.0398 3.10936 15.3265 3.00028 15.6053 3.00028C15.6799 3.00016 15.7542 3.00802 15.8271 3.02372C16.5865 3.18881 17.0396 4.1956 16.8165 5.22169C16.7004 5.75546 16.4291 6.21544 16.0525 6.51647C15.7215 6.78113 15.3493 6.88556 15.004 6.81061C14.2445 6.64575 13.7914 5.63906 14.0145 4.61288Z" fill="white"/>
</svg>
