<svg width="24" height="24" viewBox="0 0 24 24" fill="none" xmlns="http://www.w3.org/2000/svg">
<path d="M10.8 11.9998L14.7 15.8998C14.8833 16.0831 14.975 16.3165 14.975 16.5998C14.975 16.8831 14.8833 17.1165 14.7 17.2998C14.5167 17.4831 14.2833 17.5748 14 17.5748C13.7167 17.5748 13.4833 17.4831 13.3 17.2998L8.7 12.6998C8.6 12.5998 8.52934 12.4915 8.488 12.3748C8.44667 12.2581 8.42567 12.1331 8.425 11.9998C8.42434 11.8665 8.44534 11.7415 8.488 11.6248C8.53067 11.5081 8.60134 11.3998 8.7 11.2998L13.3 6.6998C13.4833 6.51647 13.7167 6.4248 14 6.4248C14.2833 6.4248 14.5167 6.51647 14.7 6.6998C14.8833 6.88314 14.975 7.11647 14.975 7.3998C14.975 7.68314 14.8833 7.91647 14.7 8.0998L10.8 11.9998Z" fill="black"/>
</svg>
