<svg width="63" height="41" viewBox="0 0 63 41" fill="none" xmlns="http://www.w3.org/2000/svg">
<rect x="10.6143" y="7.61429" width="41.7714" height="20.8857" rx="4.3" stroke="#B0BEC5" stroke-width="1.22857" stroke-linecap="round"/>
<g filter="url(#filter0_d_42_12980)">
<path d="M10.6143 12.5285C10.6143 9.81445 12.8145 7.61426 15.5285 7.61426H31.5V28.5H15.5285C12.8145 28.5 10.6143 26.2998 10.6143 23.5857V12.5285Z" fill="#F8F9FD"/>
<path d="M22.163 21.9785L18.7127 18.5385C18.6718 18.4975 18.6428 18.4532 18.6259 18.4054C18.6087 18.3576 18.6001 18.3064 18.6001 18.2518C18.6001 18.1972 18.6087 18.146 18.6259 18.0982C18.6428 18.0505 18.6718 18.0061 18.7127 17.9652L22.163 14.5149C22.2585 14.4194 22.378 14.3716 22.5213 14.3716C22.6646 14.3716 22.7875 14.4228 22.8899 14.5252C22.9922 14.6275 23.0434 14.747 23.0434 14.8835C23.0434 15.02 22.9922 15.1394 22.8899 15.2418L19.8799 18.2518L22.8899 21.2618C22.9854 21.3574 23.0332 21.475 23.0332 21.6148C23.0332 21.7549 22.982 21.8761 22.8796 21.9785C22.7772 22.0809 22.6578 22.1321 22.5213 22.1321C22.3848 22.1321 22.2653 22.0809 22.163 21.9785Z" fill="#B0BEC5"/>
</g>
<g filter="url(#filter1_d_42_12980)">
<path d="M31.5 7.61426H47.4714C50.1855 7.61426 52.3857 9.81446 52.3857 12.5285V23.5857C52.3857 26.2998 50.1855 28.5 47.4714 28.5H31.5V7.61426Z" fill="#43A047"/>
<path d="M40.3663 14.5249L43.8166 17.9649C43.8575 18.0059 43.8865 18.0502 43.9034 18.098C43.9206 18.1458 43.9292 18.197 43.9292 18.2516C43.9292 18.3062 43.9206 18.3574 43.9034 18.4052C43.8865 18.4529 43.8575 18.4973 43.8166 18.5383L40.3663 21.9885C40.2708 22.0841 40.1513 22.1318 40.008 22.1318C39.8647 22.1318 39.7418 22.0806 39.6394 21.9783C39.5371 21.8759 39.4859 21.7564 39.4859 21.6199C39.4859 21.4834 39.5371 21.364 39.6394 21.2616L42.6494 18.2516L39.6394 15.2416C39.5439 15.146 39.4961 15.0284 39.4961 14.8886C39.4961 14.7485 39.5473 14.6273 39.6497 14.5249C39.7521 14.4226 39.8715 14.3714 40.008 14.3714C40.1445 14.3714 40.264 14.4226 40.3663 14.5249Z" fill="#F8F9FD"/>
</g>
<defs>
<filter id="filter0_d_42_12980" x="0.785686" y="0.242829" width="40.5429" height="40.5429" filterUnits="userSpaceOnUse" color-interpolation-filters="sRGB">
<feFlood flood-opacity="0" result="BackgroundImageFix"/>
<feColorMatrix in="SourceAlpha" type="matrix" values="0 0 0 0 0 0 0 0 0 0 0 0 0 0 0 0 0 0 127 0" result="hardAlpha"/>
<feOffset dy="2.45714"/>
<feGaussianBlur stdDeviation="4.91429"/>
<feComposite in2="hardAlpha" operator="out"/>
<feColorMatrix type="matrix" values="0 0 0 0 0.85098 0 0 0 0 0.85098 0 0 0 0 0.85098 0 0 0 0.32 0"/>
<feBlend mode="normal" in2="BackgroundImageFix" result="effect1_dropShadow_42_12980"/>
<feBlend mode="normal" in="SourceGraphic" in2="effect1_dropShadow_42_12980" result="shape"/>
</filter>
<filter id="filter1_d_42_12980" x="21.6714" y="0.242829" width="40.5429" height="40.5429" filterUnits="userSpaceOnUse" color-interpolation-filters="sRGB">
<feFlood flood-opacity="0" result="BackgroundImageFix"/>
<feColorMatrix in="SourceAlpha" type="matrix" values="0 0 0 0 0 0 0 0 0 0 0 0 0 0 0 0 0 0 127 0" result="hardAlpha"/>
<feOffset dy="2.45714"/>
<feGaussianBlur stdDeviation="4.91429"/>
<feComposite in2="hardAlpha" operator="out"/>
<feColorMatrix type="matrix" values="0 0 0 0 0.85098 0 0 0 0 0.85098 0 0 0 0 0.85098 0 0 0 0.32 0"/>
<feBlend mode="normal" in2="BackgroundImageFix" result="effect1_dropShadow_42_12980"/>
<feBlend mode="normal" in="SourceGraphic" in2="effect1_dropShadow_42_12980" result="shape"/>
</filter>
</defs>
</svg>
