<svg width="15" height="14" viewBox="0 0 15 14" fill="none" xmlns="http://www.w3.org/2000/svg">
<path d="M13.4587 3.0625V6.5625C13.4588 6.64908 13.4332 6.73373 13.3851 6.80574C13.337 6.87775 13.2687 6.93388 13.1887 6.96702C13.1087 7.00016 13.0207 7.00883 12.9358 6.99192C12.8509 6.97501 12.7729 6.93329 12.7117 6.87203L11.2712 5.43102L8.08077 8.62203C8.04014 8.66271 7.99189 8.69498 7.93878 8.717C7.88566 8.73901 7.82873 8.75034 7.77124 8.75034C7.71374 8.75034 7.65681 8.73901 7.6037 8.717C7.55059 8.69498 7.50234 8.66271 7.46171 8.62203L5.58374 6.74352L1.95577 10.372C1.87368 10.4541 1.76234 10.5002 1.64624 10.5002C1.53014 10.5002 1.4188 10.4541 1.33671 10.372C1.25462 10.2899 1.2085 10.1786 1.2085 10.0625C1.2085 9.9464 1.25462 9.83506 1.33671 9.75297L5.27421 5.81547C5.31484 5.77479 5.36309 5.74252 5.4162 5.72051C5.46931 5.69849 5.52624 5.68716 5.58374 5.68716C5.64123 5.68716 5.69816 5.69849 5.75128 5.72051C5.80439 5.74252 5.85264 5.77479 5.89327 5.81547L7.77124 7.69398L10.6527 4.8125L9.21171 3.37203C9.15045 3.31084 9.10873 3.23286 9.09182 3.14795C9.07491 3.06303 9.08358 2.97501 9.11672 2.89503C9.14986 2.81504 9.20599 2.74669 9.278 2.69862C9.35001 2.65055 9.43466 2.62493 9.52124 2.625H13.0212C13.1373 2.625 13.2486 2.67109 13.3306 2.75314C13.4126 2.83519 13.4587 2.94647 13.4587 3.0625Z" fill="black"/>
</svg>
