<svg width="250" height="250" viewBox="0 0 250 250" fill="none" xmlns="http://www.w3.org/2000/svg">
<path d="M95.0521 44.2708C89.7031 44.2708 83.3333 50.026 83.3333 59.8958C83.3333 69.7656 89.7031 75.5208 95.0521 75.5208C100.401 75.5208 106.771 69.7656 106.771 59.8958C106.771 50.026 100.401 44.2708 95.0521 44.2708ZM70.3125 59.8958C70.3125 45.3125 80.2604 31.25 95.0521 31.25C109.844 31.25 119.792 45.3125 119.792 59.8958C119.792 74.4792 109.844 88.5417 95.0521 88.5417C80.2604 88.5417 70.3125 74.4792 70.3125 59.8958ZM40.3646 75.5208C35.0156 75.5208 28.6458 81.276 28.6458 91.1458C28.6458 101.016 35.0156 106.771 40.3646 106.771C45.7135 106.771 52.0833 101.016 52.0833 91.1458C52.0833 81.276 45.7135 75.5208 40.3646 75.5208ZM15.625 91.1458C15.625 76.5625 25.5729 62.5 40.3646 62.5C55.1562 62.5 65.1042 76.5625 65.1042 91.1458C65.1042 105.729 55.1562 119.792 40.3646 119.792C25.5729 119.792 15.625 105.729 15.625 91.1458ZM145.833 59.8958C145.833 50.026 152.203 44.2708 157.552 44.2708C162.901 44.2708 169.271 50.026 169.271 59.8958C169.271 69.7656 162.901 75.5208 157.552 75.5208C152.203 75.5208 145.833 69.7656 145.833 59.8958ZM157.552 31.25C142.76 31.25 132.812 45.3125 132.812 59.8958C132.812 74.4792 142.76 88.5417 157.552 88.5417C172.344 88.5417 182.292 74.4792 182.292 59.8958C182.292 45.3125 172.344 31.25 157.552 31.25ZM209.635 75.5208C204.286 75.5208 197.917 81.276 197.917 91.1458C197.917 101.016 204.286 106.771 209.635 106.771C214.984 106.771 221.354 101.016 221.354 91.1458C221.354 81.276 214.984 75.5208 209.635 75.5208ZM184.896 91.1458C184.896 76.5625 194.844 62.5 209.635 62.5C224.427 62.5 234.375 76.5625 234.375 91.1458C234.375 105.729 224.427 119.792 209.635 119.792C194.844 119.792 184.896 105.729 184.896 91.1458ZM65.1042 177.083C65.1042 144.005 91.9219 117.188 125 117.188C158.078 117.188 184.896 144.005 184.896 177.083C184.896 177.812 184.882 178.542 184.854 179.271C184.563 187.51 180.24 193.922 173.26 198.5C166.141 203.172 156.469 205.729 146.714 205.729H103.286C93.5312 205.729 83.8594 203.172 76.7448 198.5C69.7656 193.917 65.4427 187.51 65.1458 179.266C65.1181 178.54 65.1042 177.812 65.1042 177.083ZM125 104.167C84.7292 104.167 52.0833 136.813 52.0833 177.083C52.0833 177.969 52.1007 178.851 52.1354 179.729C52.6042 193.016 59.8333 202.979 69.599 209.385C79.224 215.703 91.4948 218.75 103.286 218.75H146.714C158.505 218.75 170.776 215.703 180.401 209.385C190.167 202.979 197.396 193.016 197.87 179.729C197.901 178.851 197.917 177.969 197.917 177.083C197.917 136.813 165.271 104.167 125 104.167Z" fill="#E5E7EB"/>
</svg>
