
<svg width="24" height="25" viewBox="0 0 24 25" fill="none" xmlns="http://www.w3.org/2000/svg">
<path d="M12 2.5C12.345 2.5 12.625 2.78 12.625 3.125V4H16.375C16.9386 4 17.4791 4.22388 17.8776 4.6224C18.2761 5.02091 18.5 5.56141 18.5 6.125V10.2C18.2646 10.0644 17.9967 9.99524 17.725 10C17.4112 9.99952 17.1052 10.0974 16.85 10.28C16.595 10.4568 16.4011 10.7084 16.295 11V11.035L15.87 12.335C15.8529 12.3911 15.8325 12.4462 15.809 12.5H7.625C7.06141 12.5 6.52091 12.2761 6.1224 11.8776C5.72388 11.4791 5.5 10.9386 5.5 10.375V6.125C5.5 5.56141 5.72388 5.02091 6.1224 4.6224C6.52091 4.22388 7.06141 4 7.625 4H11.375V3.125C11.375 2.78 11.655 2.5 12 2.5ZM12.705 14.5H6.125C5.56141 14.5 5.02091 14.7239 4.6224 15.1224C4.22388 15.5209 4 16.0614 4 16.625V17.15C4 18.727 4.7675 20.094 6.168 21.0425C7.55 21.9785 9.53 22.5 12 22.5C14.47 22.5 16.45 21.9785 17.832 21.0425C18.0867 20.8698 18.32 20.684 18.532 20.485H17.825L17.7575 20.4865C17.4467 20.4864 17.1435 20.3898 16.89 20.21C16.6273 20.0248 16.431 19.7602 16.33 19.455L15.91 18.16C15.8506 17.9786 15.7591 17.8092 15.64 17.66C15.5972 17.6034 15.5504 17.55 15.5 17.5C15.3099 17.3161 15.0784 17.1807 14.825 17.105L13.5 16.675C13.2912 16.6015 13.1013 16.4827 12.9438 16.3271C12.7864 16.1715 12.6653 15.983 12.5893 15.7751C12.5133 15.5672 12.4843 15.345 12.5043 15.1246C12.5243 14.9041 12.5928 14.6908 12.705 14.5ZM8.25 8.25C8.25 8.41415 8.28233 8.5767 8.34515 8.72835C8.40797 8.88001 8.50004 9.01781 8.61612 9.13388C8.73219 9.24996 8.86999 9.34203 9.02165 9.40485C9.1733 9.46767 9.33585 9.5 9.5 9.5C9.66415 9.5 9.8267 9.46767 9.97835 9.40485C10.13 9.34203 10.2678 9.24996 10.3839 9.13388C10.5 9.01781 10.592 8.88001 10.6548 8.72835C10.7177 8.5767 10.75 8.41415 10.75 8.25C10.75 7.91848 10.6183 7.60054 10.3839 7.36612C10.1495 7.1317 9.83152 7 9.5 7C9.16848 7 8.85054 7.1317 8.61612 7.36612C8.3817 7.60054 8.25 7.91848 8.25 8.25ZM14.5 9.5C14.8315 9.5 15.1495 9.3683 15.3839 9.13388C15.6183 8.89946 15.75 8.58152 15.75 8.25C15.75 7.91848 15.6183 7.60054 15.3839 7.36612C15.1495 7.1317 14.8315 7 14.5 7C14.1685 7 13.8505 7.1317 13.6161 7.36612C13.3817 7.60054 13.25 7.91848 13.25 8.25C13.25 8.58152 13.3817 8.89946 13.6161 9.13388C13.8505 9.3683 14.1685 9.5 14.5 9.5ZM16.4165 17.056C16.0913 16.6357 15.6486 16.3216 15.1445 16.1535L13.843 15.731C13.743 15.6954 13.6565 15.6298 13.5953 15.5431C13.5342 15.4564 13.5013 15.3529 13.5013 15.2467C13.5013 15.1406 13.5342 15.0371 13.5953 14.9504C13.6565 14.8637 13.743 14.7981 13.843 14.7625L15.144 14.34C15.5293 14.2071 15.8793 13.988 16.1672 13.6995C16.4551 13.411 16.6734 13.0606 16.8055 12.675L16.8165 12.643L17.239 11.343C17.274 11.2423 17.3396 11.155 17.4265 11.0932C17.5134 11.0314 17.6174 10.9982 17.724 10.9982C17.8306 10.9982 17.9346 11.0314 18.0215 11.0932C18.1084 11.155 18.174 11.2423 18.209 11.343L18.6315 12.643C18.7632 13.0385 18.9852 13.3978 19.2801 13.6923C19.5749 13.9869 19.9344 14.2087 20.33 14.34L21.631 14.7625L21.657 14.769C21.757 14.8046 21.8435 14.8702 21.9047 14.9569C21.9658 15.0436 21.9987 15.1471 21.9987 15.2533C21.9987 15.3594 21.9658 15.4629 21.9047 15.5496C21.8435 15.6363 21.757 15.7019 21.657 15.7375L20.356 16.16C19.9604 16.2913 19.6009 16.5131 19.3061 16.8077C19.0112 17.1022 18.7892 17.4615 18.6575 17.857L18.2345 19.157L18.222 19.189C18.1918 19.2594 18.1463 19.3222 18.0887 19.3727C18.0311 19.4232 17.9629 19.4602 17.8892 19.4809C17.8155 19.5017 17.738 19.5057 17.6626 19.4926C17.5871 19.4796 17.5155 19.4498 17.453 19.4055C17.3664 19.3441 17.301 19.2575 17.2655 19.1575L16.8425 17.857C16.7467 17.5679 16.6027 17.2971 16.4165 17.056ZM23.8045 20.492L23.1155 20.268C22.9063 20.1984 22.7162 20.0809 22.5602 19.9251C22.4043 19.7692 22.2868 19.5792 22.217 19.37L21.993 18.6815C21.9744 18.6283 21.9397 18.5821 21.8937 18.5495C21.8477 18.5168 21.7927 18.4993 21.7362 18.4993C21.6798 18.4993 21.6248 18.5168 21.5788 18.5495C21.5328 18.5821 21.4981 18.6283 21.4795 18.6815L21.2555 19.37C21.1871 19.5777 21.0716 19.7668 20.9181 19.9226C20.7646 20.0784 20.5772 20.1966 20.3705 20.268L19.6815 20.492C19.6288 20.5111 19.5833 20.5459 19.5511 20.5917C19.519 20.6376 19.5017 20.6922 19.5017 20.7482C19.5017 20.8043 19.519 20.8589 19.5511 20.9048C19.5833 20.9506 19.6288 20.9854 19.6815 21.0045L20.3705 21.2285C20.4462 21.2535 20.5192 21.2848 20.5895 21.3225L20.591 21.33C20.912 21.5015 21.1548 21.7896 21.2695 22.135L21.4935 22.8235C21.5119 22.8746 21.5452 22.919 21.589 22.9511C21.6329 22.9831 21.6853 23.0013 21.7396 23.0034C21.7939 23.0054 21.8475 22.9912 21.8936 22.9625C21.9398 22.9339 21.9763 22.8921 21.9985 22.8425V22.8385L22.0065 22.8185L22.2305 22.13C22.3003 21.9208 22.4179 21.7307 22.574 21.5748C22.73 21.419 22.9202 21.3016 23.1295 21.232L23.8185 21.008C23.8712 20.9889 23.9167 20.9541 23.9489 20.9083C23.981 20.8624 23.9983 20.8078 23.9983 20.7518C23.9983 20.6957 23.981 20.6411 23.9489 20.5952C23.9167 20.5494 23.8712 20.5146 23.8185 20.4955L23.8045 20.492Z" fill="#43A047"/>
</svg>
