<svg version="1.1" id="Layer_1" xmlns="http://www.w3.org/2000/svg" xmlns:xlink="http://www.w3.org/1999/xlink" x="0px" y="0px" viewBox="0 0 40 40" style="enable-background:new 0 0 512 512;" xml:space="preserve" width="40" height="40"><path style="fill:#DFDFE1;" points="24.976,62.439 24.976,412.098 274.732,412.098 374.634,312.195 374.634,62.439 " d="M1.951 4.878L1.951 32.195L21.463 32.195L29.268 24.39L29.268 4.878Z"/><path style="fill:#CFCDD2;" points="199.805,62.439 199.805,412.098 274.732,412.098 374.634,312.195 374.634,62.439 " d="M15.61 4.878L15.61 32.195L21.463 32.195L29.268 24.39L29.268 4.878Z"/><path x="24.976" y="62.439" style="fill:#FF4F19;" width="349.659" height="124.878" d="M1.951 4.878H29.268V14.634H1.951V4.878z"/><path x="199.805" y="62.439" style="fill:#FC0023;" width="174.829" height="124.878" d="M15.61 4.878H29.268V14.634H15.61V4.878z"/><path style="fill:#AEADB3;" d="M9.756 0H6.829v7.982c-0.302 0.344 -0.488 0.793 -0.488 1.286 0 1.076 0.875 1.951 1.951 1.951s1.951 -0.875 1.951 -1.951c0 -0.493 -0.185 -0.942 -0.488 -1.286z"/><path style="fill:#828186;" d="M24.39 7.982V0h-2.927v7.982c-0.303 0.344 -0.488 0.793 -0.488 1.286 0 1.076 0.875 1.951 1.951 1.951s1.951 -0.875 1.951 -1.951c0 -0.493 -0.185 -0.942 -0.488 -1.286"/><g><path x="106.146" y="243.512" style="fill:#AEADB3;" width="37.463" height="37.463" d="M8.293 19.024H11.219V21.951H8.293V19.024z"/><path x="181.073" y="243.512" style="fill:#AEADB3;" width="37.463" height="37.463" d="M14.146 19.024H17.073V21.951H14.146V19.024z"/></g><path x="256" y="243.512" style="fill:#828186;" width="37.463" height="37.463" d="M20 19.024H22.927V21.951H20V19.024z"/><g><path x="106.146" y="318.439" style="fill:#AEADB3;" width="37.463" height="37.463" d="M8.293 24.878H11.219V27.805H8.293V24.878z"/><path x="181.073" y="318.439" style="fill:#AEADB3;" width="37.463" height="37.463" d="M14.146 24.878H17.073V27.805H14.146V24.878z"/></g><g><path x="199.805" y="243.512" style="fill:#828186;" width="18.732" height="37.463" d="M15.61 19.024H17.073V21.951H15.61V19.024z"/><path x="199.805" y="318.439" style="fill:#828186;" width="18.732" height="37.463" d="M15.61 24.878H17.073V27.805H15.61V24.878z"/></g><path style="fill:#DFDFE1;" d="M35.122 23.415c-2.683 0 -2.683 0.488 -5.366 0.488s-2.683 -0.488 -5.366 -0.488c-1.616 0 -2.927 1.31 -2.927 2.927v5.854c0 1.951 2.927 3.171 2.927 5.122 0 1.482 1.201 2.683 2.683 2.683s2.683 -1.201 2.683 -2.683c0 1.482 1.201 2.683 2.683 2.683s2.683 -1.201 2.683 -2.683c0 -1.951 2.927 -3.171 2.927 -5.122V26.341c0 -1.616 -1.31 -2.927 -2.927 -2.927"/><path style="fill:#CFCDD2;" d="M35.122 23.415c-2.683 0 -2.683 0.488 -5.366 0.488v13.415c0 1.482 1.201 2.683 2.683 2.683s2.683 -1.201 2.683 -2.683c0 -1.951 2.927 -3.171 2.927 -5.122V26.341c0 -1.616 -1.31 -2.927 -2.927 -2.927"/></svg>