<svg width="25" height="24" viewBox="0 0 25 24" fill="none" xmlns="http://www.w3.org/2000/svg">
<path fill-rule="evenodd" clip-rule="evenodd" d="M17.5374 12.5443C16.1689 13.0854 14.6916 13.4191 13.1465 13.5056C12.8801 13.5205 12.6116 13.5281 12.3413 13.5281C12.071 13.5281 11.8025 13.5205 11.5361 13.5056C9.99064 13.4191 8.51307 13.0852 7.14425 12.5439C4.27168 11.4079 1.87807 9.35827 0.341309 6.76404C2.73661 2.72049 7.21362 0 12.3413 0C17.469 0 21.946 2.72049 24.3413 6.76404C22.8044 9.35856 20.4104 11.4084 17.5374 12.5443Z" fill="white"/>
<path d="M7.1441 13.597C6.81317 13.4662 6.4886 13.3232 6.17096 13.1686C5.13867 13.8787 4.266 14.7632 3.60889 15.7722C4.7258 17.4873 6.46549 18.8424 8.55327 19.5935C9.54813 19.9513 10.622 20.1721 11.7453 20.2293H12.9157C14.0387 20.1721 16.0124 21.2585 13.1464 24.0001C15.2345 23.2491 19.9351 17.4875 21.0521 15.7722C20.3969 14.766 19.5273 13.8838 18.4989 13.1747C18.1849 13.3271 17.8642 13.4682 17.5372 13.5974C16.1687 14.1385 14.6915 14.4723 13.1464 14.5587C12.8799 14.5736 12.6114 14.5812 12.3412 14.5812C12.0709 14.5812 11.8024 14.5736 11.5359 14.5587C9.99049 14.4722 8.51292 14.1384 7.1441 13.597Z" fill="white"/>
<rect x="6.55487" y="5.03384" width="11.5981" height="4.04494" rx="2.02247" fill="#43A047"/>
<ellipse cx="15.5523" cy="7.0339" rx="0.759402" ry="0.741573" fill="#6CC447"/>
<ellipse cx="12.3305" cy="17.0111" rx="0.759402" ry="0.741573" fill="#43A047"/>
<ellipse cx="9.29334" cy="7.0339" rx="0.759402" ry="0.741573" fill="#6CC447"/>
<ellipse cx="9.29334" cy="17.0111" rx="0.759402" ry="0.741573" fill="#43A047"/>
<ellipse cx="15.3685" cy="17.0111" rx="0.759402" ry="0.741573" fill="#43A047"/>
</svg>
