<svg width="24" height="25" viewBox="0 0 24 25" fill="none" xmlns="http://www.w3.org/2000/svg">
<path d="M8.5 12.575H12V7.57495M3 12.575C3 13.7568 3.23279 14.9272 3.68508 16.0191C4.13738 17.111 4.80031 18.1032 5.63604 18.9389C6.47177 19.7746 7.46392 20.4376 8.55585 20.8899C9.64778 21.3422 10.8181 21.575 12 21.575C13.1819 21.575 14.3522 21.3422 15.4442 20.8899C16.5361 20.4376 17.5282 19.7746 18.364 18.9389C19.1997 18.1032 19.8626 17.111 20.3149 16.0191C20.7672 14.9272 21 13.7568 21 12.575C21 11.3931 20.7672 10.2227 20.3149 9.1308C19.8626 8.03887 19.1997 7.04672 18.364 6.21099C17.5282 5.37526 16.5361 4.71233 15.4442 4.26004C14.3522 3.80774 13.1819 3.57495 12 3.57495C10.8181 3.57495 9.64778 3.80774 8.55585 4.26004C7.46392 4.71233 6.47177 5.37526 5.63604 6.21099C4.80031 7.04672 4.13738 8.03887 3.68508 9.1308C3.23279 10.2227 3 11.3931 3 12.575Z" stroke="#FFDB58" stroke-width="2" stroke-linecap="round" stroke-linejoin="round"/>
</svg>
