<svg width="16" height="16" viewBox="0 0 16 16" fill="none" xmlns="http://www.w3.org/2000/svg">
<path d="M2.66668 6.93333V6.4H2.13335V6.93333H2.66668ZM2.66668 11.2H2.13335V11.7333H2.66668V11.2ZM13.3333 6.93333H13.8667V6.4H13.3333V6.93333ZM13.3333 11.2V11.7333H13.8667V11.2H13.3333ZM14.4 3.73333H14.9333V3.51253L14.7776 3.35573L14.4 3.73333ZM11.2 0.533333L11.5776 0.155733L11.4208 0H11.2V0.533333ZM2.13335 6.93333V11.2H3.20001V6.93333H2.13335ZM2.66668 11.7333H3.73335V10.6667H2.66668V11.7333ZM5.33335 10.1333V8H4.26668V10.1333H5.33335ZM3.73335 6.4H2.66668V7.46667H3.73335V6.4ZM5.33335 8C5.33335 7.57565 5.16478 7.16869 4.86472 6.86863C4.56466 6.56857 4.15769 6.4 3.73335 6.4V7.46667C3.8748 7.46667 4.01045 7.52286 4.11047 7.62288C4.21049 7.7229 4.26668 7.85855 4.26668 8H5.33335ZM3.73335 11.7333C4.15769 11.7333 4.56466 11.5648 4.86472 11.2647C5.16478 10.9646 5.33335 10.5577 5.33335 10.1333H4.26668C4.26668 10.2748 4.21049 10.4104 4.11047 10.5105C4.01045 10.6105 3.8748 10.6667 3.73335 10.6667V11.7333ZM6.40001 8V10.1333H7.46668V8H6.40001ZM9.60001 10.1333V8H8.53335V10.1333H9.60001ZM9.60001 8C9.60001 7.57565 9.43144 7.16869 9.13139 6.86863C8.83133 6.56857 8.42436 6.4 8.00001 6.4V7.46667C8.14146 7.46667 8.27712 7.52286 8.37714 7.62288C8.47716 7.7229 8.53335 7.85855 8.53335 8H9.60001ZM8.00001 11.7333C8.42436 11.7333 8.83133 11.5648 9.13139 11.2647C9.43144 10.9646 9.60001 10.5577 9.60001 10.1333H8.53335C8.53335 10.2748 8.47716 10.4104 8.37714 10.5105C8.27712 10.6105 8.14146 10.6667 8.00001 10.6667V11.7333ZM6.40001 10.1333C6.40001 10.5577 6.56859 10.9646 6.86864 11.2647C7.1687 11.5648 7.57567 11.7333 8.00001 11.7333V10.6667C7.85857 10.6667 7.72291 10.6105 7.62289 10.5105C7.52287 10.4104 7.46668 10.2748 7.46668 10.1333H6.40001ZM7.46668 8C7.46668 7.85855 7.52287 7.7229 7.62289 7.62288C7.72291 7.52286 7.85857 7.46667 8.00001 7.46667V6.4C7.57567 6.4 7.1687 6.56857 6.86864 6.86863C6.56859 7.16869 6.40001 7.57565 6.40001 8H7.46668ZM10.6667 6.4V11.7333H11.7333V6.4H10.6667ZM11.2 7.46667H13.3333V6.4H11.2V7.46667ZM12.8 6.93333V8.53333H13.8667V6.93333H12.8ZM11.2 11.7333H13.3333V10.6667H11.2V11.7333ZM13.8667 11.2V9.6H12.8V11.2H13.8667ZM2.13335 5.33333V1.6H1.06668V5.33333H2.13335ZM13.8667 3.73333V5.33333H14.9333V3.73333H13.8667ZM2.66668 1.06667H11.2V0H2.66668V1.06667ZM10.8224 0.910933L14.0224 4.11093L14.7776 3.35573L11.5776 0.155733L10.8224 0.910933ZM2.13335 1.6C2.13335 1.45855 2.18954 1.3229 2.28956 1.22288C2.38958 1.12286 2.52523 1.06667 2.66668 1.06667V0C2.24233 0 1.83537 0.168571 1.53531 0.468629C1.23525 0.768687 1.06668 1.17565 1.06668 1.6H2.13335ZM1.06668 12.8V14.4H2.13335V12.8H1.06668ZM2.66668 16H13.3333V14.9333H2.66668V16ZM14.9333 14.4V12.8H13.8667V14.4H14.9333ZM13.3333 16C13.7577 16 14.1647 15.8314 14.4647 15.5314C14.7648 15.2313 14.9333 14.8243 14.9333 14.4H13.8667C13.8667 14.5414 13.8105 14.6771 13.7105 14.7771C13.6105 14.8771 13.4748 14.9333 13.3333 14.9333V16ZM1.06668 14.4C1.06668 14.8243 1.23525 15.2313 1.53531 15.5314C1.83537 15.8314 2.24233 16 2.66668 16V14.9333C2.52523 14.9333 2.38958 14.8771 2.28956 14.7771C2.18954 14.6771 2.13335 14.5414 2.13335 14.4H1.06668Z" fill="#4B5563"/>
</svg>
