<svg width="24" height="24" viewBox="0 0 24 24" fill="none" xmlns="http://www.w3.org/2000/svg">
<path d="M17.9296 2.97656C17.5239 2.97767 17.1225 3.05902 16.7485 3.21593C16.3744 3.37284 16.0351 3.6022 15.7501 3.89081L3.89031 15.7498L3.84381 15.9846L3.02331 20.1096L2.78931 21.2106L3.89106 20.9766L8.01606 20.1561L8.25006 20.1088L20.1098 8.24981C20.3993 7.96535 20.6292 7.62609 20.7861 7.25183C20.9431 6.87756 21.0239 6.47578 21.0239 6.06994C21.0239 5.6641 20.9431 5.26232 20.7861 4.88805C20.6292 4.51378 20.3993 4.17452 20.1098 3.89006C19.8246 3.6015 19.4852 3.37222 19.111 3.21544C18.7368 3.05866 18.3353 2.97747 17.9296 2.97656ZM17.9296 4.40606C18.3076 4.40606 18.6886 4.57856 19.0546 4.94531C19.7843 5.67431 19.7843 6.46556 19.0546 7.19531L18.5161 7.71056L16.2886 5.48381L16.8046 4.94531C17.1713 4.57856 17.5516 4.40606 17.9296 4.40606ZM15.2348 6.53906L17.4608 8.76581L8.39106 17.8348C7.90196 16.8764 7.12228 16.0973 6.16356 15.6088L15.2348 6.53906ZM5.20356 16.8283C5.64753 17.0067 6.05081 17.2731 6.38915 17.6115C6.72748 17.9498 6.99388 18.3531 7.17231 18.7971L4.71081 19.2891L5.20356 16.8283Z" fill="#4B5563"/>
</svg>
