<svg width="24" height="24" viewBox="0 0 24 24" fill="none" xmlns="http://www.w3.org/2000/svg">
<path d="M17.9295 2.97656C17.5239 2.97767 17.1225 3.05902 16.7484 3.21593C16.3743 3.37284 16.035 3.6022 15.75 3.89081L3.89025 15.7498L3.84375 15.9846L3.02325 20.1096L2.78925 21.2106L3.891 20.9766L8.016 20.1561L8.25 20.1088L20.1097 8.24981C20.3992 7.96535 20.6291 7.62609 20.7861 7.25183C20.943 6.87756 21.0238 6.47578 21.0238 6.06994C21.0238 5.6641 20.943 5.26232 20.7861 4.88805C20.6291 4.51378 20.3992 4.17452 20.1097 3.89006C19.8246 3.6015 19.4851 3.37222 19.1109 3.21544C18.7367 3.05866 18.3352 2.97747 17.9295 2.97656ZM17.9295 4.40606C18.3075 4.40606 18.6885 4.57856 19.0545 4.94531C19.7842 5.67431 19.7842 6.46556 19.0545 7.19531L18.516 7.71056L16.2885 5.48381L16.8045 4.94531C17.1712 4.57856 17.5515 4.40606 17.9295 4.40606ZM15.2347 6.53906L17.4607 8.76581L8.391 17.8348C7.9019 16.8764 7.12222 16.0973 6.1635 15.6088L15.2347 6.53906ZM5.2035 16.8283C5.64746 17.0067 6.05075 17.2731 6.38909 17.6115C6.72742 17.9498 6.99382 18.3531 7.17225 18.7971L4.71075 19.2891L5.2035 16.8283Z" fill="#43A047"/>
</svg>
