<svg width="16" height="17" viewBox="0 0 16 17" fill="none" xmlns="http://www.w3.org/2000/svg">
<path d="M10 8.5C10 9.03043 9.78929 9.53914 9.41421 9.91421C9.03914 10.2893 8.53043 10.5 8 10.5C7.46957 10.5 6.96086 10.2893 6.58579 9.91421C6.21071 9.53914 6 9.03043 6 8.5C6 7.96957 6.21071 7.46086 6.58579 7.08579C6.96086 6.71071 7.46957 6.5 8 6.5C8.53043 6.5 9.03914 6.71071 9.41421 7.08579C9.78929 7.46086 10 7.96957 10 8.5Z" stroke="#CCCCCC" stroke-width="1.5" stroke-linecap="round" stroke-linejoin="round"/>
<path d="M1.3335 8.50016C2.40016 5.76883 4.89083 3.8335 8.00016 3.8335C11.1095 3.8335 13.6002 5.76883 14.6668 8.50016C13.6002 11.2315 11.1095 13.1668 8.00016 13.1668C4.89083 13.1668 2.40016 11.2315 1.3335 8.50016Z" stroke="#CCCCCC" stroke-width="1.5" stroke-linecap="round" stroke-linejoin="round"/>
</svg>
