<svg width="15" height="25" viewBox="0 0 15 25" fill="none" xmlns="http://www.w3.org/2000/svg">
<g clip-path="url(#clip0_41_4401)">
<path d="M0.75 7.32495C0.75 5.53474 1.46116 3.81785 2.72703 2.55198C3.9929 1.28611 5.70979 0.574951 7.5 0.574951C9.29021 0.574951 11.0071 1.28611 12.273 2.55198C13.5388 3.81785 14.25 5.53474 14.25 7.32495C14.25 9.11516 13.5388 10.8321 12.273 12.0979C11.0071 13.3638 9.29021 14.075 7.5 14.075C5.70979 14.075 3.9929 13.3638 2.72703 12.0979C1.46116 10.8321 0.75 9.11516 0.75 7.32495ZM7.5 4.32495C7.9125 4.32495 8.25 3.98745 8.25 3.57495C8.25 3.16245 7.9125 2.82495 7.5 2.82495C5.01562 2.82495 3 4.84058 3 7.32495C3 7.73745 3.3375 8.07495 3.75 8.07495C4.1625 8.07495 4.5 7.73745 4.5 7.32495C4.5 5.67026 5.84531 4.32495 7.5 4.32495ZM6 23.075V15.439C6.99179 15.6203 8.00821 15.6203 9 15.439V23.075C9 23.9046 8.32969 24.575 7.5 24.575C6.67031 24.575 6 23.9046 6 23.075Z" fill="#FFDB58"/>
</g>
<defs>
<clipPath id="clip0_41_4401">
<rect width="15" height="24" fill="white" transform="translate(0 0.574951)"/>
</clipPath>
</defs>
</svg>
