<svg width="151" height="150" viewBox="0 0 151 150" fill="none" xmlns="http://www.w3.org/2000/svg">
<path d="M57.5312 26.5625C54.3219 26.5625 50.5 30.0156 50.5 35.9375C50.5 41.8594 54.3219 45.3125 57.5312 45.3125C60.7406 45.3125 64.5625 41.8594 64.5625 35.9375C64.5625 30.0156 60.7406 26.5625 57.5312 26.5625ZM42.6875 35.9375C42.6875 27.1875 48.6562 18.75 57.5312 18.75C66.4062 18.75 72.375 27.1875 72.375 35.9375C72.375 44.6875 66.4062 53.125 57.5312 53.125C48.6562 53.125 42.6875 44.6875 42.6875 35.9375ZM24.7188 45.3125C21.5094 45.3125 17.6875 48.7656 17.6875 54.6875C17.6875 60.6094 21.5094 64.0625 24.7188 64.0625C27.9281 64.0625 31.75 60.6094 31.75 54.6875C31.75 48.7656 27.9281 45.3125 24.7188 45.3125ZM9.875 54.6875C9.875 45.9375 15.8438 37.5 24.7188 37.5C33.5938 37.5 39.5625 45.9375 39.5625 54.6875C39.5625 63.4375 33.5938 71.875 24.7188 71.875C15.8438 71.875 9.875 63.4375 9.875 54.6875ZM88 35.9375C88 30.0156 91.8219 26.5625 95.0312 26.5625C98.2406 26.5625 102.062 30.0156 102.062 35.9375C102.062 41.8594 98.2406 45.3125 95.0312 45.3125C91.8219 45.3125 88 41.8594 88 35.9375ZM95.0312 18.75C86.1562 18.75 80.1875 27.1875 80.1875 35.9375C80.1875 44.6875 86.1562 53.125 95.0312 53.125C103.906 53.125 109.875 44.6875 109.875 35.9375C109.875 27.1875 103.906 18.75 95.0312 18.75ZM126.281 45.3125C123.072 45.3125 119.25 48.7656 119.25 54.6875C119.25 60.6094 123.072 64.0625 126.281 64.0625C129.491 64.0625 133.312 60.6094 133.312 54.6875C133.312 48.7656 129.491 45.3125 126.281 45.3125ZM111.438 54.6875C111.438 45.9375 117.406 37.5 126.281 37.5C135.156 37.5 141.125 45.9375 141.125 54.6875C141.125 63.4375 135.156 71.875 126.281 71.875C117.406 71.875 111.438 63.4375 111.438 54.6875ZM39.5625 106.25C39.5625 86.4031 55.6531 70.3125 75.5 70.3125C95.3469 70.3125 111.438 86.4031 111.438 106.25C111.438 106.688 111.429 107.125 111.412 107.562C111.238 112.506 108.644 116.353 104.456 119.1C100.184 121.903 94.3812 123.438 88.5281 123.438H62.4719C56.6187 123.438 50.8156 121.903 46.5469 119.1C42.3594 116.35 39.7656 112.506 39.5875 107.559C39.5708 107.124 39.5625 106.688 39.5625 106.25ZM75.5 62.5C51.3375 62.5 31.75 82.0875 31.75 106.25C31.75 106.781 31.7604 107.31 31.7812 107.838C32.0625 115.809 36.4 121.787 42.2594 125.631C48.0344 129.422 55.3969 131.25 62.4719 131.25H88.5281C95.6031 131.25 102.966 129.422 108.741 125.631C114.6 121.787 118.938 115.809 119.222 107.838C119.241 107.31 119.25 106.781 119.25 106.25C119.25 82.0875 99.6625 62.5 75.5 62.5Z" fill="#E5E7EB"/>
</svg>
