
<svg width="32" height="33" viewBox="0 0 32 33" fill="none" xmlns="http://www.w3.org/2000/svg">
<path d="M17.3333 12.4998H24.6666L17.3333 5.1665V12.4998ZM7.99992 3.1665H18.6666L26.6666 11.1665V27.1665C26.6666 27.8737 26.3856 28.552 25.8855 29.0521C25.3854 29.5522 24.7072 29.8332 23.9999 29.8332H7.99992C7.29267 29.8332 6.6144 29.5522 6.1143 29.0521C5.6142 28.552 5.33325 27.8737 5.33325 27.1665V5.83317C5.33325 5.12593 5.6142 4.44765 6.1143 3.94755C6.6144 3.44746 7.29267 3.1665 7.99992 3.1665ZM14.5733 17.0865C15.1199 18.2865 15.8133 19.2732 16.6133 19.9532L17.1599 20.3798C15.9999 20.5932 14.3999 20.9665 12.7066 21.6198L12.5599 21.6732L13.2266 20.2865C13.8266 19.1265 14.2666 18.0732 14.5733 17.0865ZM23.2133 22.1665C23.4533 21.9265 23.5733 21.6198 23.5866 21.2865C23.6266 21.0198 23.5599 20.7665 23.4266 20.5532C23.0399 19.9265 22.0399 19.6332 20.3866 19.6332L18.6666 19.7265L17.5066 18.9532C16.6666 18.2598 15.9066 17.0465 15.3733 15.5398L15.4266 15.3532C15.8666 13.5798 16.2799 11.4332 15.3999 10.5532C15.2923 10.4487 15.165 10.3665 15.0253 10.3116C14.8857 10.2567 14.7366 10.23 14.5866 10.2332H14.2666C13.7733 10.2332 13.3333 10.7532 13.2133 11.2598C12.7199 13.0332 13.0133 14.0065 13.5066 15.6198V15.6332C13.1733 16.8065 12.7466 18.1665 12.0666 19.5398L10.7866 21.9398L9.59992 22.5932C7.99992 23.5932 7.23992 24.7132 7.09325 25.4198C7.03992 25.6732 7.06659 25.8998 7.15992 26.1398L7.19992 26.2065L7.83992 26.6198L8.42659 26.7665C9.50659 26.7665 10.7333 25.4998 12.3866 22.6732L12.6266 22.5798C13.9999 22.1398 15.7066 21.8332 17.9999 21.5798C19.3733 22.2598 20.9866 22.5665 21.9999 22.5665C22.5866 22.5665 22.9866 22.4198 23.2133 22.1665ZM22.6666 21.2198L22.7866 21.3665C22.7733 21.4998 22.7333 21.5132 22.6666 21.5398H22.6133L22.3599 21.5665C21.7466 21.5665 20.7999 21.3132 19.8266 20.8865C19.9466 20.7532 19.9999 20.7532 20.1333 20.7532C21.9999 20.7532 22.5333 21.0865 22.6666 21.2198ZM10.4399 23.1665C9.57325 24.7532 8.78659 25.6332 8.18659 25.8332C8.25325 25.3265 8.85325 24.4465 9.79992 23.5798L10.4399 23.1665ZM14.4666 13.9532C14.1599 12.7532 14.1466 11.7798 14.3733 11.2198L14.4666 11.0598L14.6666 11.1265C14.8933 11.4465 14.9199 11.8732 14.7866 12.5932L14.7466 12.8065L14.5333 13.8998L14.4666 13.9532Z" fill="#EF5350"/>
</svg>
