<svg width="24" height="25" viewBox="0 0 24 25" fill="none" xmlns="http://www.w3.org/2000/svg">
<path d="M19.23 15.835L16.69 15.545C16.3914 15.5099 16.0886 15.543 15.8046 15.6417C15.5206 15.7404 15.2626 15.9022 15.05 16.115L13.21 17.955C10.3714 16.5109 8.0641 14.2036 6.62004 11.365L8.47004 9.51496C8.90004 9.08496 9.11004 8.48496 9.04004 7.87496L8.75004 5.35496C8.69356 4.86705 8.45951 4.41699 8.0925 4.09056C7.7255 3.76413 7.25121 3.58416 6.76004 3.58496H5.03004C3.90004 3.58496 2.96004 4.52496 3.03004 5.65496C3.56004 14.195 10.39 21.015 18.92 21.545C20.05 21.615 20.99 20.675 20.99 19.545V17.815C21 16.805 20.24 15.955 19.23 15.835Z" fill="#FFDB58"/>
</svg>
