<svg width="24" height="25" viewBox="0 0 24 25" fill="none" xmlns="http://www.w3.org/2000/svg">
<path d="M19.9331 13.5412C19.7442 14.9811 19.167 16.3425 18.2632 17.4793C17.3595 18.6162 16.1633 19.4855 14.803 19.9942C13.4427 20.5029 11.9696 20.6317 10.5417 20.3667C9.1138 20.1018 7.78492 19.4532 6.69761 18.4905C5.6103 17.5277 4.80557 16.2872 4.36973 14.9018C3.93389 13.5165 3.88338 12.0386 4.22362 10.6268C4.56385 9.21488 5.282 7.92227 6.30104 6.88752C7.32007 5.85278 8.60156 5.11495 10.0081 4.75317C13.9071 3.75317 17.9431 5.76017 19.4331 9.50017" stroke="black" stroke-width="2" stroke-linecap="round" stroke-linejoin="round"/>
<path d="M20 4.5V9.5H15" stroke="black" stroke-width="2" stroke-linecap="round" stroke-linejoin="round"/>
</svg>
