<svg width="43" height="42" viewBox="0 0 43 42" fill="none" xmlns="http://www.w3.org/2000/svg">
<rect x="0.712402" width="41.575" height="41.575" rx="12" fill="#43A047"/>
<path d="M19.2124 25C17.3957 25 15.8584 24.3707 14.6004 23.112C13.3424 21.8533 12.7131 20.316 12.7124 18.5C12.7117 16.684 13.3411 15.1467 14.6004 13.888C15.8597 12.6293 17.3971 12 19.2124 12C21.0277 12 22.5654 12.6293 23.8254 13.888C25.0854 15.1467 25.7144 16.684 25.7124 18.5C25.7124 19.2333 25.5957 19.925 25.3624 20.575C25.1291 21.225 24.8124 21.8 24.4124 22.3L30.0124 27.9C30.1957 28.0833 30.2874 28.3167 30.2874 28.6C30.2874 28.8833 30.1957 29.1167 30.0124 29.3C29.8291 29.4833 29.5957 29.575 29.3124 29.575C29.0291 29.575 28.7957 29.4833 28.6124 29.3L23.0124 23.7C22.5124 24.1 21.9374 24.4167 21.2874 24.65C20.6374 24.8833 19.9457 25 19.2124 25ZM19.2124 23C20.4624 23 21.5251 22.5627 22.4004 21.688C23.2757 20.8133 23.7131 19.7507 23.7124 18.5C23.7117 17.2493 23.2744 16.187 22.4004 15.313C21.5264 14.439 20.4637 14.0013 19.2124 14C17.9611 13.9987 16.8987 14.4363 16.0254 15.313C15.1521 16.1897 14.7144 17.252 14.7124 18.5C14.7104 19.748 15.1481 20.8107 16.0254 21.688C16.9027 22.5653 17.9651 23.0027 19.2124 23Z" fill="white"/>
</svg>
