
<svg width="16" height="16" viewBox="0 0 16 16" fill="none" xmlns="http://www.w3.org/2000/svg">
<path d="M11.086 9.26048L11.39 8.95848L10.684 8.24914L10.3813 8.55114L11.086 9.26048ZM12.4093 8.83181L13.6833 9.52448L14.16 8.64581L12.8866 7.95381L12.4093 8.83181ZM13.928 10.9005L12.9813 11.8425L13.686 12.5511L14.6326 11.6098L13.928 10.9005ZM12.404 12.1451C11.4373 12.2358 8.93729 12.1551 6.22929 9.46314L5.52395 10.1718C8.47862 13.1098 11.2913 13.2538 12.4973 13.1411L12.404 12.1451ZM6.22929 9.46314C3.64862 6.89648 3.22062 4.73848 3.16729 3.80181L2.16862 3.85848C2.23529 5.03714 2.76529 7.42914 5.52395 10.1718L6.22929 9.46314ZM7.14595 5.34314L7.33729 5.15248L6.63329 4.44381L6.44195 4.63381L7.14595 5.34314ZM7.48929 2.72914L6.64929 1.60648L5.84862 2.20648L6.68862 3.32848L7.48929 2.72914ZM3.82195 1.36181L2.77529 2.40181L3.48062 3.11114L4.52662 2.07114L3.82195 1.36181ZM6.79395 4.98848C6.44062 4.63381 6.44062 4.63381 6.44062 4.63514H6.43929L6.43729 4.63781C6.4056 4.66975 6.37724 4.70482 6.35262 4.74248C6.31662 4.79581 6.27729 4.86581 6.24395 4.95448C6.1628 5.18336 6.14259 5.42942 6.18529 5.66848C6.27462 6.24514 6.67195 7.00714 7.68929 8.01914L8.39462 7.30981C7.44195 6.36314 7.21529 5.78714 7.17329 5.51514C7.15329 5.38581 7.17395 5.32181 7.17995 5.30714C7.18395 5.29825 7.18395 5.29692 7.17995 5.30314C7.17401 5.31234 7.16732 5.32104 7.15995 5.32914L7.15329 5.33581L7.14662 5.34181L6.79395 4.98848ZM7.68929 8.01914C8.70729 9.03114 9.47329 9.42581 10.0506 9.51381C10.346 9.55914 10.584 9.52314 10.7646 9.45581C10.8658 9.41879 10.9604 9.36566 11.0446 9.29848L11.078 9.26848L11.0826 9.26448L11.0846 9.26248L11.0853 9.26114C11.0853 9.26114 11.086 9.26048 10.7333 8.90581C10.38 8.55114 10.382 8.55048 10.382 8.55048L10.3833 8.54914L10.3846 8.54781L10.3886 8.54448L10.3953 8.53781L10.4206 8.51781C10.4268 8.51381 10.4253 8.51425 10.416 8.51914C10.3993 8.52514 10.334 8.54581 10.2026 8.52581C9.92662 8.48314 9.34662 8.25648 8.39462 7.30981L7.68929 8.01914ZM6.64929 1.60581C5.96929 0.699144 4.63329 0.555144 3.82195 1.36181L4.52662 2.07114C4.88129 1.71848 5.51062 1.75514 5.84862 2.20648L6.64929 1.60581ZM3.16795 3.80248C3.15462 3.57181 3.26062 3.33048 3.48062 3.11181L2.77462 2.40248C2.41662 2.75848 2.13462 3.26248 2.16862 3.85848L3.16795 3.80248ZM12.9813 11.8425C12.7986 12.0251 12.6013 12.1278 12.4046 12.1458L12.4973 13.1411C12.9873 13.0951 13.388 12.8485 13.6866 12.5518L12.9813 11.8425ZM7.33729 5.15248C7.99395 4.49981 8.04262 3.46848 7.48995 2.72981L6.68929 3.32914C6.95795 3.68848 6.91795 4.15981 6.63262 4.44448L7.33729 5.15248ZM13.684 9.52514C14.2286 9.82114 14.3133 10.5185 13.9286 10.9011L14.634 11.6098C15.5273 10.7211 15.252 9.23914 14.1606 8.64648L13.684 9.52514ZM11.39 8.95914C11.646 8.70448 12.058 8.64181 12.41 8.83248L12.8873 7.95448C12.1646 7.56114 11.2686 7.66981 10.6846 8.24981L11.39 8.95914Z" fill="black"/>
</svg>
