
<svg width="16" height="16" viewBox="0 0 16 16" fill="none" xmlns="http://www.w3.org/2000/svg">
<g clip-path="url(#clip0_22_1783)">
<path d="M1.33337 7.99984C1.33337 5.48584 1.33337 4.2285 2.11471 3.44784C2.89604 2.66717 4.15271 2.6665 6.66671 2.6665H9.33337C11.8474 2.6665 13.1047 2.6665 13.8854 3.44784C14.666 4.22917 14.6667 5.48584 14.6667 7.99984V9.33317C14.6667 11.8472 14.6667 13.1045 13.8854 13.8852C13.104 14.6658 11.8474 14.6665 9.33337 14.6665H6.66671C4.15271 14.6665 2.89537 14.6665 2.11471 13.8852C1.33404 13.1038 1.33337 11.8472 1.33337 9.33317V7.99984Z" stroke="black" stroke-width="1.5"/>
<path d="M4.66675 2.6665V1.6665M11.3334 2.6665V1.6665M1.66675 5.99984H14.3334" stroke="black" stroke-width="1.5" stroke-linecap="round"/>
<path d="M12 11.3333C12 11.5101 11.9298 11.6797 11.8047 11.8047C11.6797 11.9298 11.5101 12 11.3333 12C11.1565 12 10.987 11.9298 10.8619 11.8047C10.7369 11.6797 10.6667 11.5101 10.6667 11.3333C10.6667 11.1565 10.7369 10.987 10.8619 10.8619C10.987 10.7369 11.1565 10.6667 11.3333 10.6667C11.5101 10.6667 11.6797 10.7369 11.8047 10.8619C11.9298 10.987 12 11.1565 12 11.3333ZM12 8.66667C12 8.84348 11.9298 9.01305 11.8047 9.13807C11.6797 9.2631 11.5101 9.33333 11.3333 9.33333C11.1565 9.33333 10.987 9.2631 10.8619 9.13807C10.7369 9.01305 10.6667 8.84348 10.6667 8.66667C10.6667 8.48986 10.7369 8.32029 10.8619 8.19526C10.987 8.07024 11.1565 8 11.3333 8C11.5101 8 11.6797 8.07024 11.8047 8.19526C11.9298 8.32029 12 8.48986 12 8.66667ZM8.66667 11.3333C8.66667 11.5101 8.59643 11.6797 8.4714 11.8047C8.34638 11.9298 8.17681 12 8 12C7.82319 12 7.65362 11.9298 7.5286 11.8047C7.40357 11.6797 7.33333 11.5101 7.33333 11.3333C7.33333 11.1565 7.40357 10.987 7.5286 10.8619C7.65362 10.7369 7.82319 10.6667 8 10.6667C8.17681 10.6667 8.34638 10.7369 8.4714 10.8619C8.59643 10.987 8.66667 11.1565 8.66667 11.3333ZM8.66667 8.66667C8.66667 8.84348 8.59643 9.01305 8.4714 9.13807C8.34638 9.2631 8.17681 9.33333 8 9.33333C7.82319 9.33333 7.65362 9.2631 7.5286 9.13807C7.40357 9.01305 7.33333 8.84348 7.33333 8.66667C7.33333 8.48986 7.40357 8.32029 7.5286 8.19526C7.65362 8.07024 7.82319 8 8 8C8.17681 8 8.34638 8.07024 8.4714 8.19526C8.59643 8.32029 8.66667 8.48986 8.66667 8.66667ZM5.33333 11.3333C5.33333 11.5101 5.2631 11.6797 5.13807 11.8047C5.01305 11.9298 4.84348 12 4.66667 12C4.48986 12 4.32029 11.9298 4.19526 11.8047C4.07024 11.6797 4 11.5101 4 11.3333C4 11.1565 4.07024 10.987 4.19526 10.8619C4.32029 10.7369 4.48986 10.6667 4.66667 10.6667C4.84348 10.6667 5.01305 10.7369 5.13807 10.8619C5.2631 10.987 5.33333 11.1565 5.33333 11.3333ZM5.33333 8.66667C5.33333 8.84348 5.2631 9.01305 5.13807 9.13807C5.01305 9.2631 4.84348 9.33333 4.66667 9.33333C4.48986 9.33333 4.32029 9.2631 4.19526 9.13807C4.07024 9.01305 4 8.84348 4 8.66667C4 8.48986 4.07024 8.32029 4.19526 8.19526C4.32029 8.07024 4.48986 8 4.66667 8C4.84348 8 5.01305 8.07024 5.13807 8.19526C5.2631 8.32029 5.33333 8.48986 5.33333 8.66667Z" fill="black"/>
</g>
<defs>
<clipPath id="clip0_22_1783">
<rect width="16" height="16" fill="white"/>
</clipPath>
</defs>
</svg>
