<svg width="28" height="28" viewBox="0 0 28 28" fill="none" xmlns="http://www.w3.org/2000/svg">
<path d="M4.08301 12.834V16.334C4.08301 20.7335 4.08301 22.9338 5.45034 24.3C6.81767 25.6661 9.01684 25.6673 13.4163 25.6673H14.583C18.9825 25.6673 21.1828 25.6673 22.549 24.3C23.9152 22.9326 23.9163 20.7335 23.9163 16.334V12.834" stroke="#A0522D" stroke-width="1.75"/>
<path d="M11.0829 2.33398H16.9162L17.6769 9.93715C17.727 10.4502 17.6692 10.9681 17.5072 11.4575C17.3452 11.9468 17.0826 12.3969 16.7362 12.7787C16.3899 13.1606 15.9675 13.4657 15.4961 13.6745C15.0248 13.8833 14.515 13.9912 13.9995 13.9912C13.484 13.9912 12.9742 13.8833 12.5029 13.6745C12.0316 13.4657 11.6092 13.1606 11.2628 12.7787C10.9165 12.3969 10.6539 11.9468 10.4919 11.4575C10.3299 10.9681 10.2721 10.4502 10.3222 9.93715L11.0829 2.33398Z" stroke="#A0522D" stroke-width="1.75"/>
<path d="M3.8847 6.24348C4.09237 5.20515 4.1962 4.68598 4.40737 4.26482C4.6274 3.8262 4.9372 3.43874 5.31667 3.12761C5.69614 2.81648 6.1368 2.58862 6.61003 2.45882C7.06503 2.33398 7.5947 2.33398 8.65403 2.33398H11.083L10.2372 10.7865C10.1926 11.2702 10.0497 11.7398 9.81727 12.1663C9.58486 12.5929 9.26784 12.9676 8.88561 13.2674C8.50337 13.5672 8.06397 13.7859 7.5943 13.91C7.12463 14.0341 6.63457 14.061 6.15413 13.9892C5.67369 13.9173 5.21297 13.7481 4.80017 13.492C4.38738 13.2359 4.0312 12.8982 3.75344 12.4997C3.47568 12.1011 3.28218 11.6501 3.18478 11.1742C3.08739 10.6982 3.08816 10.2074 3.18703 9.73182L3.8847 6.24348ZM24.1147 6.24348C23.907 5.20515 23.8032 4.68598 23.592 4.26482C23.372 3.8262 23.0622 3.43874 22.6827 3.12761C22.3033 2.81648 21.8626 2.58862 21.3894 2.45882C20.9344 2.33398 20.4047 2.33398 19.3454 2.33398H16.9164L17.7622 10.7865C17.8068 11.2702 17.9497 11.7398 18.1821 12.1663C18.4145 12.5929 18.7316 12.9676 19.1138 13.2674C19.496 13.5672 19.9354 13.7859 20.4051 13.91C20.8748 14.0341 21.3648 14.061 21.8453 13.9892C22.3257 13.9173 22.7864 13.7481 23.1992 13.492C23.612 13.2359 23.9682 12.8982 24.246 12.4997C24.5237 12.1011 24.7172 11.6501 24.8146 11.1742C24.912 10.6982 24.9112 10.2074 24.8124 9.73182L24.1147 6.24348Z" stroke="#A0522D" stroke-width="1.75"/>
<path d="M11.083 25.0846V21.5846C11.083 20.4938 11.083 19.949 11.3175 19.543C11.4711 19.277 11.692 19.0561 11.958 18.9025C12.364 18.668 12.9088 18.668 13.9997 18.668C15.0905 18.668 15.6353 18.668 16.0413 18.9025C16.3074 19.0561 16.5283 19.277 16.6818 19.543C16.9163 19.949 16.9163 20.4938 16.9163 21.5846V25.0846" stroke="#A0522D" stroke-width="1.75" stroke-linecap="round"/>
</svg>
