<svg version="1.1" id="Layer_1" xmlns="http://www.w3.org/2000/svg" xmlns:xlink="http://www.w3.org/1999/xlink" x="0px" y="0px" viewBox="0 0 32 32" style="enable-background:new 0 0 512.001 512.001;" xml:space="preserve" width="32" height="32"><path style="fill:#FF3501;" d="M25.227 7.048a0.704 0.704 0 0 0 -0.69 -0.551H7.464a0.704 0.704 0 0 0 -0.69 0.552L2.208 27.188v1.34H29.749l0.043 -1.34z"/><path style="fill:#CD2900;" d="M9.48 7.048a0.704 0.704 0 0 1 0.69 -0.552h-2.707a0.704 0.704 0 0 0 -0.69 0.552L2.208 27.188v1.34h2.707v-1.34z"/><path x="222.454" y="317.869" style="fill:#891D00;" width="67.093" height="148.551" d="M13.903 19.867H18.097V29.151H13.903V19.867z"/><path x="222.454" y="317.869" style="fill:#720016;" width="32.447" height="148.551" d="M13.903 19.867H15.931V29.151H13.903V19.867z"/><path style="fill:#2E2D30;" d="M2.595 32c-1.348 0 -2.44 -1.093 -2.44 -2.44s1.093 -2.44 2.44 -2.44H29.405c1.348 0 2.44 1.093 2.44 2.44S30.753 32 29.405 32z"/><path style="fill:#1D1D20;" d="M2.694 30.137v-1.154c0 -1.027 0.836 -1.863 1.863 -1.863h-1.962c-1.348 0 -2.44 1.093 -2.44 2.44S1.247 32 2.595 32h1.962c-1.027 0 -1.863 -0.836 -1.863 -1.863"/><path style="fill:#AC2201;" d="M16 21.688c-3.051 0 -5.534 -2.482 -5.534 -5.534s2.482 -5.534 5.534 -5.534 5.534 2.482 5.534 5.534 -2.482 5.534 -5.534 5.534"/><path style="fill:#891D00;" d="M16 18.694c-1.4 0 -2.539 -1.139 -2.539 -2.539s1.139 -2.539 2.539 -2.539 2.539 1.139 2.539 2.539 -1.139 2.539 -2.539 2.539"/><g><path style="fill:#AC2201;" d="M16 4.468a0.516 0.516 0 0 0 0.516 -0.516V0.516A0.516 0.516 0 0 0 16 0a0.516 0.516 0 0 0 -0.516 0.516v3.437a0.515 0.515 0 0 0 0.516 0.516"/><path style="fill:#AC2201;" d="M26.999 5.671a0.514 0.514 0 0 0 0.365 -0.151l2.75 -2.75a0.515 0.515 0 0 0 0 -0.729 0.516 0.516 0 0 0 -0.729 0L26.634 4.791a0.515 0.515 0 0 0 0 0.729 0.514 0.514 0 0 0 0.365 0.151"/><path style="fill:#AC2201;" d="M4.636 5.52a0.514 0.514 0 0 0 0.365 0.151 0.514 0.514 0 0 0 0.365 -0.151 0.515 0.515 0 0 0 0 -0.729L2.616 2.041a0.516 0.516 0 0 0 -0.729 0 0.515 0.515 0 0 0 0 0.729z"/></g></svg>
