
<svg width="16" height="16" viewBox="0 0 16 16" fill="none" xmlns="http://www.w3.org/2000/svg">
<path d="M2.66675 11.9987C2.66675 11.2915 2.9477 10.6132 3.4478 10.1131C3.94789 9.61298 4.62617 9.33203 5.33341 9.33203H10.6667C11.374 9.33203 12.0523 9.61298 12.5524 10.1131C13.0525 10.6132 13.3334 11.2915 13.3334 11.9987C13.3334 12.3523 13.1929 12.6915 12.9429 12.9415C12.6928 13.1916 12.3537 13.332 12.0001 13.332H4.00008C3.64646 13.332 3.30732 13.1916 3.05727 12.9415C2.80722 12.6915 2.66675 12.3523 2.66675 11.9987Z" stroke="white" stroke-width="1.33333" stroke-linejoin="round"/>
<path d="M8 6.66602C9.10457 6.66602 10 5.77059 10 4.66602C10 3.56145 9.10457 2.66602 8 2.66602C6.89543 2.66602 6 3.56145 6 4.66602C6 5.77059 6.89543 6.66602 8 6.66602Z" stroke="white" stroke-width="1.33333"/>
</svg>
