<svg width="32" height="32" viewBox="0 0 32 32" fill="none" xmlns="http://www.w3.org/2000/svg">
<path fill-rule="evenodd" clip-rule="evenodd" d="M3.28933 9.56033C3.13706 9.25531 3.06528 8.91643 3.08081 8.57586C3.09635 8.2353 3.19868 7.90436 3.37809 7.61447C3.5575 7.32458 3.80803 7.08537 4.1059 6.91954C4.40377 6.75371 4.73908 6.66678 5.08 6.66699H22.3533C23.0961 6.66702 23.8241 6.87384 24.456 7.26428C25.0878 7.65473 25.5984 8.21338 25.9307 8.87766L28.5973 14.211C28.8752 14.7665 29.0199 15.3792 29.0199 16.0003C29.0199 16.6215 28.8752 17.2341 28.5973 17.7897L25.9307 23.123C25.5983 23.7875 25.0875 24.3463 24.4554 24.7367C23.8233 25.1272 23.095 25.3339 22.352 25.3337H5.07867C4.73786 25.3336 4.40272 25.2465 4.10503 25.0806C3.80734 24.9147 3.55699 24.6755 3.37774 24.3856C3.19848 24.0958 3.09627 23.7649 3.0808 23.4245C3.06533 23.084 3.13711 22.7452 3.28933 22.4403L6.21067 16.5963C6.30315 16.4113 6.35129 16.2072 6.35129 16.0003C6.35129 15.7934 6.30315 15.5894 6.21067 15.4043L3.28933 9.56033ZM6.15734 9.33366L8.59734 14.211C8.8752 14.7665 9.01987 15.3792 9.01987 16.0003C9.01987 16.6215 8.8752 17.2341 8.59734 17.7897L6.156 22.667H22.3507C22.5982 22.6669 22.8408 22.5978 23.0514 22.4676C23.2619 22.3374 23.432 22.1511 23.5427 21.9297L26.2093 16.5963C26.3018 16.4113 26.35 16.2072 26.35 16.0003C26.35 15.7934 26.3018 15.5894 26.2093 15.4043L23.5427 10.071C23.4321 9.84975 23.2622 9.66362 23.0519 9.53341C22.8417 9.4032 22.5993 9.33404 22.352 9.33366H6.15734Z" fill="#FFDB58"/>
</svg>
